<svg width="17" height="13" viewBox="0 0 17 13" fill="none" xmlns="http://www.w3.org/2000/svg">
<path d="M4.58434 5.07843H2.01233V5.90196H4.58434V5.07843Z" fill="#E3027F"/>
<path d="M3.53498 7.17647H0.427979V8H3.53498V7.17647Z" fill="#E3027F"/>
<path d="M4.99588 9.29411H3.88477V10.1176H4.99588V9.29411Z" fill="#E3027F"/>
<path d="M3.10284 9.27451H1.04523V10.098H3.10284V9.27451Z" fill="#E3027F"/>
<path d="M15.8395 10.7843L15.7778 10.6667L15.6543 10.6078C15.0164 10.3137 13.7613 10.098 13.2263 10L11.4568 5.72549L15.1811 0.588234H9.70781L8.14402 3.72549L8.12345 3.7451C7.3004 3.78431 6.0041 4.27451 5.36624 6.11765L4.23456 7.45098L10.1193 12.1569H1.47736V12.9804H15.1193H15.3045L15.428 12.8627C15.7983 12.549 16.3333 11.7059 15.8395 10.7843ZM8.65842 4.64706L9.87242 2.21569L11.9712 3.47059L10.2016 5.90196C9.85184 5.98039 9.39916 6 9.02879 5.7451C8.69958 5.5098 8.55554 5.09804 8.65842 4.64706ZM14.9341 12.1569L11.4156 12.1373L5.44855 7.33333L6.14814 6.5098L6.16871 6.43137C6.58024 5.19608 7.3004 4.76471 7.77365 4.62745C7.67077 5.33333 7.93826 6.01961 8.53497 6.43137C9.35801 7 10.3045 6.78431 10.8601 6.56863L11.251 7.4902L9.99587 7.96078L10.3045 8.72549L11.5597 8.2549L11.8477 8.96078L10.6543 9.41177L10.9835 10.1765L12.1769 9.72549L12.5885 10.7255L12.8354 10.7647C13.2881 10.8235 14.502 11.0392 15.1193 11.2745C15.2634 11.6667 15.0782 11.9804 14.9341 12.1569Z" fill="#E3027F"/>
</svg>
