<svg width="20" height="20" viewBox="0 0 20 20" fill="none" xmlns="http://www.w3.org/2000/svg">
<path d="M16.6666 5.00002H14.1666V3.33335C14.1666 2.40835 13.425 1.66669 12.5 1.66669H7.49996C6.57496 1.66669 5.83329 2.40835 5.83329 3.33335V5.00002H3.33329C2.40829 5.00002 1.66663 5.74169 1.66663 6.66669V15.8334C1.66663 16.7584 2.40829 17.5 3.33329 17.5H16.6666C17.5916 17.5 18.3333 16.7584 18.3333 15.8334V6.66669C18.3333 5.74169 17.5916 5.00002 16.6666 5.00002ZM7.49996 3.33335H12.5V5.00002H7.49996V3.33335ZM16.6666 15.8334H3.33329V14.1667H16.6666V15.8334ZM16.6666 11.6667H3.33329V6.66669H5.83329V8.33335H7.49996V6.66669H12.5V8.33335H14.1666V6.66669H16.6666V11.6667Z" fill="#E3027F"/>
</svg>
