<?xml version="1.0" encoding="utf-8"?>
<!-- Generator: Adobe Illustrator 21.0.2, SVG Export Plug-In . SVG Version: 6.00 Build 0)  -->
<svg version="1.1" xmlns="http://www.w3.org/2000/svg" xmlns:xlink="http://www.w3.org/1999/xlink" x="0px" y="0px"
	 viewBox="0 0 102 102" style="enable-background:new 0 0 102 102;" xml:space="preserve">
<style type="text/css">
	.st0{fill:none;}
</style>
<g id="Icon">
	<g>
		<rect x="21" y="41.2" width="12.5" height="4.2"/>
		<rect x="13.3" y="51.9" width="15.1" height="4.2"/>
		<rect x="30.1" y="62.7" width="5.4" height="4.2"/>
		<rect x="16.3" y="62.6" width="10" height="4.2"/>
		<path d="M88.2,70.3l-0.3-0.6l-0.6-0.3c-3.1-1.5-9.2-2.6-11.8-3.1l-8.6-21.8l18.1-26.2H58.4l-7.6,16c0,0-0.1,0.1-0.1,0.1
			c-4,0.2-10.3,2.7-13.4,12.1l-5.5,6.8l28.6,24H18.4v4.2h66.3l0.9,0l0.6-0.6C88,79.3,90.6,75,88.2,70.3z M53.3,39l5.9-12.4L69.4,33
			l-8.6,12.4c-1.7,0.4-3.9,0.5-5.7-0.8C53.5,43.4,52.8,41.3,53.3,39z M50.9,34.2L50.9,34.2L50.9,34.2L50.9,34.2z M83.8,77.3
			l-17.1-0.1L37.7,52.7l3.4-4.2l0.1-0.4c2-6.3,5.5-8.5,7.8-9.2c-0.5,3.6,0.8,7.1,3.7,9.2c4,2.9,8.6,1.8,11.3,0.7l1.9,4.7l-6.1,2.4
			l1.5,3.9l6.1-2.4l1.4,3.6l-5.8,2.3l1.6,3.9l5.8-2.3l2,5.1l1.2,0.2c2.2,0.3,8.1,1.4,11.1,2.6C85.4,74.8,84.5,76.4,83.8,77.3z"/>
	</g>
</g>
<g id="Slot">
	<rect class="st0" width="102" height="102"/>
</g>
</svg>
