<svg width="14" height="13" viewBox="0 0 14 13" fill="none" xmlns="http://www.w3.org/2000/svg">
<path d="M0 12.1589H2.52214V4.86355H0V12.1589ZM13.8718 5.47149C13.8718 4.80276 13.3043 4.25561 12.6107 4.25561H8.63203L9.23104 1.4773L9.24996 1.28276C9.24996 1.0335 9.14277 0.802486 8.97252 0.638341L8.30415 0L4.15523 4.00635C3.92193 4.22521 3.78321 4.52918 3.78321 4.86355V10.943C3.78321 11.6117 4.3507 12.1589 5.04428 12.1589H10.7191C11.2424 12.1589 11.6901 11.8549 11.8793 11.4172L13.7835 7.13118C13.8403 6.99135 13.8718 6.84545 13.8718 6.68738V5.47149Z" fill="#E3027F"/>
</svg>
