<svg width="25" height="22" viewBox="0 0 25 22" fill="none" xmlns="http://www.w3.org/2000/svg">
<path d="M14.7063 7.88366L14.5758 8.48904H15.1951H22.0157C22.9459 8.48904 23.6775 9.22019 23.6775 10.0734V12.1578C23.6775 12.3566 23.6389 12.5409 23.5658 12.7235L20.3049 20.063L20.3049 20.063L20.3029 20.0677C20.0592 20.6314 19.4745 21.0375 18.7729 21.0375H9.04468C8.11446 21.0375 7.38285 20.3063 7.38285 19.4531V9.03123C7.38285 8.6003 7.56044 8.20993 7.86268 7.9264L7.86271 7.92644L7.86791 7.92142L14.6349 1.38695L15.4318 2.14797C15.432 2.14821 15.4323 2.14846 15.4325 2.14871C15.6275 2.33703 15.7481 2.5965 15.7542 2.87097L15.7271 3.1491L14.7063 7.88366ZM4.22101 9.53123V21.0375H0.897339V9.53123H4.22101Z" fill="white" stroke="black"/>
</svg>
