<svg id="Layer_1" data-name="Layer 1" xmlns="http://www.w3.org/2000/svg" viewBox="0 0 286.34 344.2"><path d="M1222.32,957H1183.9c-5.58,0-7-1.71-7.34-7.19a185.2,185.2,0,0,0-2.33-22.35c-1.83-9.74-7.08-17.65-14.29-24.61-13.23-12.79-21.23-28.67-24.31-46.74-7.34-43.1,16.24-83.46,57.21-98.56,47.06-17.35,100.94,10,114.26,58.35,9.09,33,1.42,62.37-22.49,86.77-10.38,10.59-14.9,22.89-16.12,37-.33,3.8-.45,7.61-.62,11.43-.19,4.12-1.89,5.85-6.11,5.86C1248.61,957,1235.47,957,1222.32,957Zm-.09-10.29c10.79,0,21.58-.06,32.36,0,2.53,0,3.72-.7,3.67-3.41a50.69,50.69,0,0,1,.61-7c1.91-15.3,7-29,18.27-40.21,19.78-19.65,27-43.8,21.76-71-7.83-41-45.79-67.75-87.12-62.37-38.57,5-67.83,37.84-67.94,76.7-.06,22.4,8.11,41.56,24.15,57.36a56.25,56.25,0,0,1,8.49,10.38c6.59,10.66,9.07,22.6,9.75,35,.24,4.34.34,4.53,4.66,4.54Z" transform="translate(-1078.86 -678.24)"/><path d="M1222,964.17c11.45,0,22.9,0,34.35,0,8.25,0,14,5.25,14.12,12.58.08,7.49-6,13.2-14.42,13.25-15.94.08-31.88,0-47.82,0-7.08,0-14.15.11-21.22,0-6.72-.14-12.23-4.88-13.08-10.94a12.84,12.84,0,0,1,9.07-14.32,20.08,20.08,0,0,1,5.32-.54C1199.58,964.15,1210.8,964.17,1222,964.17Zm-.16,9.67h-23.25c-3.82,0-7.65-.19-11.44.13-1.17.1-2.22,1.63-3.32,2.5a32.43,32.43,0,0,0,3,3.12c.42.34,1.31.14,2,.14h66.7c2.23,0,4.64-.12,4.55-3.12-.08-2.76-2.39-2.78-4.5-2.78Q1238.71,973.86,1221.87,973.84Z" transform="translate(-1078.86 -678.24)"/><path d="M1222.24,996.51c8.53,0,17.07-.14,25.6,0a12.13,12.13,0,0,1,11.71,9.4c1.38,5.76-1,11.81-6.15,14.37a19.26,19.26,0,0,1-8.05,2q-23.24.27-46.47.06c-10.56-.09-17.14-8.8-13.58-17.75,2-4.92,5.65-7.91,11-8,8.64-.19,17.29-.06,25.93-.06Zm0,15.55c4.83,0,9.65,0,14.48,0a73.49,73.49,0,0,0,9.74-.21c1.27-.17,2.32-1.9,3.47-2.92a27.17,27.17,0,0,0-3.51-2.87,5.62,5.62,0,0,0-2.65-.2q-21.55,0-43.09,0a9.14,9.14,0,0,0-3.65.35,4.51,4.51,0,0,0-2.46,2.57c-.15.8,1,2.2,1.86,2.72a7.72,7.72,0,0,0,3.59.53C1207.43,1012.08,1214.84,1012.06,1222.24,1012.06Z" transform="translate(-1078.86 -678.24)"/><path d="M1227.31,701.54c0,5.17.06,10.34,0,15.51,0,1.54,0,3.37-.77,4.56s-2.58,2.79-4,2.88-3.33-1.13-4.39-2.33c-.84-.94-1-2.73-1-4.14-.07-11.12-.05-22.25,0-33.37,0-1-.06-2.3.5-2.91,1.27-1.36,2.76-3,4.43-3.38,2.29-.56,4.16,1,4.67,3.37a34.27,34.27,0,0,1,.58,6.33C1227.37,692.55,1227.32,697.05,1227.31,701.54Z" transform="translate(-1078.86 -678.24)"/><path d="M1138.44,702.68c.77.6,2.6,1.46,3.55,2.9q9.63,14.64,18.91,29.5c1.94,3.09,1.33,6.18-1.15,7.75s-5.33.82-7.38-2.36q-9.33-14.43-18.51-29C1131.16,707.2,1133,702.72,1138.44,702.68Z" transform="translate(-1078.86 -678.24)"/><path d="M1327.57,788.17c-1.18-1-3.2-1.94-3.54-3.29-.43-1.68.24-3.84,1-5.55.41-.94,1.91-1.47,3-2.05q14-7.6,28.12-15.14c1.34-.71,3-1.66,4.34-1.38,1.72.38,3.91,1.53,4.57,3,.59,1.27-.47,3.45-1.13,5.09-.28.69-1.36,1.11-2.14,1.53q-15.08,8.17-30.18,16.28A39.09,39.09,0,0,1,1327.57,788.17Z" transform="translate(-1078.86 -678.24)"/><path d="M1115.84,787.86a34.92,34.92,0,0,1-3.73-1.56q-14.64-7.92-29.22-15.93c-3.84-2.11-4.87-4.41-3.36-7.18s4.54-3.43,8.19-1.46c9.77,5.25,19.5,10.58,29.25,15.87,2.29,1.24,4.12,2.77,3.85,5.72S1118.77,787.36,1115.84,787.86Z" transform="translate(-1078.86 -678.24)"/><path d="M1290.26,744.71c-4.07.06-6.13-2-5.78-4.89a9.67,9.67,0,0,1,1.54-4c6.09-9.27,12.27-18.5,18.45-27.71.62-.93,1.34-2.29,2.19-2.44,1.9-.32,4.18-.57,5.82.19,1.94.9,2.38,3.14,1.32,5.28a18.83,18.83,0,0,1-1.17,2c-6.34,9.52-12.64,19.06-19.08,28.51A15.82,15.82,0,0,1,1290.26,744.71Z" transform="translate(-1078.86 -678.24)"/><path d="M1290.75,841.79c-.07.48.18,2-.49,2.83-1.27,1.49-3.07,3.52-4.63,3.5s-3.91-2-4.39-3.63c-1-3.38-.93-7.07-1.44-10.61-3.52-24.36-24.44-45-48.8-48.14-2.66-.35-5.35-.45-8-.7-3.46-.32-5.94-2.72-5.68-5.46s3-4.69,6.45-4.56c17.4.66,32.64,6.63,45.37,18.56C1282.81,806.41,1289.73,822.39,1290.75,841.79Z" transform="translate(-1078.86 -678.24)"/></svg>